<svg id="svg" version="1.1" xmlns="http://www.w3.org/2000/svg" xmlns:xlink="http://www.w3.org/1999/xlink" width="400" height="190.66666666666666" viewBox="0, 0, 400,190.66666666666666"><g id="svgg"><path id="path0" d="M338.417 86.243 C 335.707 86.591,334.976 86.907,334.250 88.047 C 333.816 88.728,333.861 91.117,334.332 92.376 C 334.674 93.288,334.583 94.000,334.127 94.000 C 334.057 94.000,334.000 94.071,334.000 94.158 C 334.000 94.351,332.348 96.561,332.145 96.639 C 332.065 96.669,332.000 96.767,332.000 96.855 C 332.000 97.004,330.164 99.405,329.584 100.014 C 329.446 100.159,329.333 100.327,329.333 100.388 C 329.333 100.448,329.190 100.667,329.015 100.874 C 328.513 101.468,325.952 104.733,325.583 105.248 C 325.400 105.505,325.119 105.833,324.958 105.978 C 324.798 106.122,324.667 106.293,324.667 106.356 C 324.667 106.420,324.520 106.647,324.340 106.861 C 324.161 107.075,323.195 108.291,322.194 109.563 L 320.375 111.876 318.312 112.420 C 315.383 113.192,312.298 114.492,311.950 115.101 C 311.877 115.229,311.735 115.333,311.635 115.333 C 310.971 115.333,308.347 118.281,307.911 119.515 C 307.431 120.876,307.830 122.285,308.872 122.910 C 309.712 123.413,310.894 123.980,311.125 123.990 C 311.489 124.007,311.358 124.280,310.333 125.640 C 309.783 126.370,309.333 127.012,309.333 127.067 C 309.333 127.122,309.202 127.309,309.042 127.483 C 308.881 127.657,308.563 128.074,308.333 128.410 C 308.104 128.745,307.842 129.109,307.750 129.218 C 307.658 129.327,307.361 129.754,307.088 130.167 C 306.816 130.579,306.310 131.265,305.963 131.690 C 305.183 132.647,305.175 132.579,306.125 133.012 C 307.928 133.835,312.142 133.466,314.297 132.297 C 314.597 132.134,314.954 132.000,315.088 132.000 C 315.223 132.000,315.333 131.936,315.333 131.859 C 315.333 131.781,315.633 131.582,316.000 131.417 C 316.367 131.251,316.667 131.057,316.667 130.986 C 316.667 130.914,316.819 130.807,317.005 130.748 C 317.931 130.455,324.667 124.235,324.667 123.674 C 324.667 123.585,324.817 123.431,325.000 123.333 C 325.183 123.235,325.333 123.091,325.333 123.012 C 325.333 122.933,325.543 122.644,325.799 122.370 L 326.265 121.872 327.434 122.093 C 329.588 122.500,333.342 122.674,339.684 122.661 L 345.978 122.647 346.655 123.096 C 347.028 123.342,347.333 123.622,347.333 123.717 C 347.333 123.813,347.452 124.021,347.597 124.181 C 347.742 124.341,347.973 124.966,348.110 125.570 C 348.248 126.173,348.429 126.667,348.514 126.667 C 348.598 126.667,348.667 126.817,348.667 127.000 C 348.667 127.183,348.737 127.333,348.822 127.333 C 348.908 127.333,349.025 127.482,349.083 127.664 C 349.310 128.382,351.361 130.651,351.792 130.661 C 351.906 130.664,352.000 130.735,352.000 130.819 C 352.000 131.039,353.449 131.816,354.241 132.021 C 356.738 132.666,357.055 132.702,358.629 132.514 C 360.453 132.297,361.446 132.080,362.587 131.649 C 363.047 131.475,363.523 131.333,363.644 131.333 C 364.647 131.333,366.333 129.242,366.333 127.999 C 366.333 127.074,365.120 125.333,364.474 125.333 C 364.251 125.333,363.333 124.406,363.333 124.179 C 363.333 124.081,363.264 124.000,363.178 124.000 C 362.976 124.000,362.000 122.552,362.000 122.251 C 362.000 122.124,361.927 121.975,361.839 121.920 C 361.668 121.814,360.667 119.802,360.666 119.560 C 360.665 119.481,360.547 119.192,360.403 118.917 C 360.010 118.166,359.067 115.452,358.346 113.000 C 358.143 112.313,357.902 111.525,357.808 111.250 C 357.715 110.975,357.501 110.225,357.332 109.583 C 357.164 108.942,356.826 107.667,356.582 106.750 C 356.337 105.833,356.038 104.633,355.916 104.083 C 355.568 102.509,355.324 101.508,354.982 100.250 C 354.808 99.608,354.666 98.921,354.666 98.722 C 354.666 98.524,354.517 98.011,354.333 97.583 C 354.150 97.156,354.000 96.664,354.000 96.491 C 354.000 96.318,353.862 95.931,353.694 95.630 C 353.526 95.329,353.335 94.869,353.270 94.606 C 353.142 94.094,351.335 91.015,350.866 90.512 C 350.711 90.345,350.293 89.900,349.939 89.523 C 347.417 86.841,343.169 85.632,338.417 86.243 M286.083 86.248 C 285.900 86.281,284.850 86.395,283.750 86.501 C 280.690 86.797,275.969 87.963,273.537 89.023 C 273.145 89.194,272.748 89.333,272.654 89.333 C 272.561 89.333,272.173 89.483,271.794 89.667 C 271.415 89.850,271.024 90.000,270.927 90.001 C 270.420 90.003,267.682 91.330,267.343 91.738 C 267.224 91.882,267.033 92.000,266.919 92.000 C 266.749 92.000,265.145 93.616,264.389 94.549 C 262.539 96.833,261.902 101.625,263.044 104.667 C 263.776 106.616,265.405 109.333,265.842 109.333 C 265.929 109.333,266.000 109.429,266.000 109.545 C 266.000 109.662,266.534 110.168,267.186 110.670 C 267.838 111.172,268.456 111.663,268.561 111.759 C 268.665 111.856,268.862 111.991,269.000 112.059 C 269.137 112.127,269.550 112.366,269.917 112.590 C 270.283 112.814,270.846 113.114,271.167 113.257 C 272.218 113.725,272.911 114.046,273.250 114.222 C 273.433 114.317,273.782 114.495,274.024 114.617 C 274.267 114.740,274.557 114.951,274.670 115.087 C 274.782 115.222,274.960 115.333,275.064 115.333 C 275.719 115.333,278.203 118.122,278.924 119.667 C 280.611 123.281,280.141 127.976,277.981 129.093 C 276.007 130.114,270.667 126.729,270.667 124.457 C 270.667 124.320,270.557 123.945,270.423 123.625 C 270.289 123.304,270.102 122.553,270.006 121.955 C 269.460 118.539,267.496 117.596,263.833 118.993 C 262.880 119.357,261.627 119.785,260.667 120.075 C 258.056 120.865,257.333 121.486,257.333 122.939 C 257.333 124.513,258.349 126.099,260.417 127.751 C 260.875 128.117,261.275 128.473,261.306 128.542 C 261.336 128.610,261.426 128.667,261.506 128.667 C 261.692 128.667,263.233 129.695,263.306 129.868 C 263.336 129.941,263.499 130.000,263.667 130.000 C 263.835 130.000,263.997 130.058,264.028 130.129 C 264.082 130.255,266.497 131.631,267.667 132.201 C 268.984 132.845,270.705 133.348,273.333 133.858 C 275.658 134.309,280.106 133.798,282.854 132.764 C 284.763 132.046,285.053 131.922,285.907 131.458 C 286.370 131.206,286.981 130.892,287.263 130.760 C 287.546 130.627,287.873 130.402,287.992 130.260 C 288.111 130.117,288.274 130.000,288.355 130.000 C 288.504 130.000,288.951 129.637,290.305 128.417 C 291.032 127.761,292.412 126.079,292.762 125.420 C 292.860 125.235,293.023 124.933,293.123 124.750 C 294.767 121.743,294.929 116.624,293.468 113.833 C 292.324 111.646,290.381 109.310,288.417 107.759 C 287.958 107.397,287.507 107.022,287.413 106.925 C 287.319 106.829,287.122 106.675,286.976 106.583 C 286.829 106.492,286.241 106.079,285.668 105.667 C 285.096 105.254,284.501 104.842,284.346 104.750 C 283.236 104.091,282.000 103.246,282.000 103.145 C 282.000 103.078,281.905 102.925,281.790 102.804 C 280.685 101.648,279.254 98.361,279.391 97.294 C 279.560 95.971,279.811 94.586,279.986 94.000 C 280.490 92.317,283.333 90.894,284.612 91.684 C 285.150 92.017,285.443 92.290,286.382 93.333 C 287.493 94.569,287.955 98.778,287.400 102.626 C 287.167 104.244,290.257 104.485,292.059 102.989 C 292.164 102.902,292.648 102.521,293.134 102.144 C 293.963 101.500,296.667 98.360,296.667 98.042 C 296.667 97.962,296.798 97.751,296.958 97.573 C 297.119 97.395,297.467 96.837,297.733 96.333 C 297.998 95.829,298.303 95.304,298.410 95.167 C 299.027 94.376,299.690 92.645,299.481 92.367 C 299.026 91.762,296.524 89.333,296.356 89.333 C 296.258 89.333,296.098 89.183,296.000 89.000 C 295.902 88.817,295.736 88.667,295.632 88.667 C 295.528 88.667,295.324 88.559,295.178 88.427 C 293.618 87.015,288.566 85.805,286.083 86.248 M175.583 86.590 C 173.480 86.829,171.381 87.312,169.729 87.935 C 169.099 88.173,168.348 88.456,168.061 88.564 C 167.774 88.672,167.436 88.839,167.311 88.934 C 167.186 89.029,166.654 89.320,166.130 89.579 C 165.605 89.838,165.027 90.189,164.845 90.358 C 164.663 90.528,164.467 90.667,164.411 90.667 C 164.201 90.667,161.893 92.649,161.167 93.453 C 160.096 94.638,159.377 95.491,159.256 95.719 C 159.198 95.828,158.970 96.217,158.749 96.583 C 158.528 96.950,158.207 97.513,158.035 97.833 C 157.694 98.471,157.123 99.468,156.651 100.250 C 156.485 100.525,156.041 101.292,155.665 101.954 C 155.289 102.617,154.910 103.202,154.824 103.256 C 154.737 103.309,154.667 103.499,154.667 103.677 C 154.667 103.854,154.607 104.000,154.533 104.000 C 154.460 104.000,154.233 104.319,154.030 104.708 C 153.826 105.098,153.480 105.717,153.262 106.083 C 152.626 107.151,152.419 107.514,151.746 108.750 C 151.396 109.392,151.061 109.954,151.000 110.000 C 150.939 110.046,150.604 110.608,150.254 111.250 C 149.581 112.486,149.374 112.849,148.738 113.917 C 148.520 114.283,148.174 114.902,147.970 115.292 C 147.767 115.681,147.540 116.000,147.467 116.000 C 147.393 116.000,147.333 116.142,147.333 116.316 C 147.333 116.913,146.887 116.825,146.438 116.138 C 146.197 115.771,146.000 115.402,146.000 115.318 C 146.000 115.234,145.850 114.886,145.667 114.544 C 145.483 114.201,145.333 113.829,145.333 113.715 C 145.333 113.602,145.191 113.188,145.016 112.796 C 144.842 112.404,144.536 111.483,144.337 110.750 C 144.138 110.017,143.856 109.004,143.710 108.500 C 143.564 107.996,143.393 107.283,143.330 106.917 C 143.267 106.550,143.095 105.763,142.949 105.167 C 142.803 104.571,142.530 103.315,142.342 102.375 C 142.154 101.435,141.854 99.935,141.675 99.042 C 141.497 98.148,141.197 96.690,141.009 95.802 C 140.821 94.914,140.661 93.939,140.653 93.635 C 140.622 92.308,139.932 89.983,139.500 89.746 C 135.879 87.761,128.906 86.779,125.192 87.730 C 123.748 88.100,123.729 88.194,124.741 89.985 C 125.120 90.654,125.285 91.111,125.191 91.229 C 125.109 91.332,124.607 92.242,124.074 93.250 C 123.541 94.258,122.900 95.458,122.648 95.917 C 122.396 96.375,122.080 96.985,121.945 97.271 C 121.811 97.558,121.618 97.844,121.517 97.906 C 121.416 97.969,121.333 98.165,121.333 98.343 C 121.333 98.521,121.273 98.667,121.200 98.667 C 121.126 98.667,120.900 98.985,120.696 99.375 C 120.493 99.765,120.147 100.383,119.929 100.750 C 119.420 101.603,119.104 102.145,118.812 102.667 C 118.683 102.896,118.298 103.516,117.956 104.045 C 117.613 104.574,117.333 105.039,117.333 105.079 C 117.333 105.160,116.588 106.316,116.353 106.599 C 116.270 106.699,116.079 106.999,115.929 107.266 C 115.651 107.760,115.461 108.054,114.587 109.348 C 114.314 109.753,114.014 110.204,113.920 110.351 C 113.827 110.498,113.527 110.948,113.253 111.351 C 112.980 111.754,112.680 112.206,112.587 112.355 C 112.493 112.505,112.079 113.096,111.667 113.668 C 111.254 114.241,110.842 114.828,110.750 114.973 C 110.658 115.117,110.492 115.336,110.381 115.457 C 110.269 115.579,110.047 115.901,109.887 116.173 C 109.726 116.444,109.536 116.667,109.464 116.667 C 109.392 116.667,109.333 116.745,109.333 116.842 C 109.333 117.000,107.524 119.376,106.918 120.014 C 106.780 120.159,106.667 120.365,106.667 120.472 C 106.667 120.579,106.603 120.667,106.524 120.667 C 106.446 120.667,106.066 121.117,105.680 121.667 C 105.294 122.217,104.909 122.667,104.823 122.667 C 104.737 122.667,104.667 122.777,104.667 122.911 C 104.667 123.045,104.517 123.235,104.333 123.333 C 104.150 123.431,104.000 123.622,104.000 123.756 C 104.000 123.890,103.939 124.000,103.864 124.000 C 103.789 124.000,103.269 124.581,102.709 125.292 C 101.734 126.527,100.953 127.462,100.445 128.000 C 100.315 128.137,99.664 128.887,98.998 129.667 C 98.332 130.446,97.610 131.262,97.394 131.481 C 96.892 131.988,96.891 131.982,97.583 132.715 L 98.166 133.333 100.625 133.330 C 103.165 133.327,105.292 132.949,106.833 132.228 C 108.318 131.533,108.879 131.228,109.171 130.958 C 109.344 130.798,109.565 130.667,109.661 130.667 C 109.910 130.667,112.667 127.846,112.667 127.591 C 112.667 127.474,112.817 127.188,113.000 126.955 C 113.183 126.721,113.333 126.418,113.333 126.279 C 113.333 126.141,113.395 126.003,113.469 125.972 C 113.586 125.924,114.109 125.050,115.378 122.778 C 115.541 122.488,115.862 121.950,116.092 121.583 C 116.321 121.217,116.590 120.710,116.688 120.458 C 116.786 120.206,116.922 120.000,116.991 120.000 C 117.060 120.000,117.251 119.700,117.417 119.333 C 117.582 118.967,117.781 118.667,117.859 118.667 C 117.936 118.667,118.000 118.517,118.000 118.333 C 118.000 118.150,118.061 118.000,118.136 118.000 C 118.210 118.000,118.399 117.756,118.555 117.458 C 118.711 117.160,119.062 116.579,119.334 116.167 C 119.605 115.754,119.881 115.307,119.945 115.173 C 120.010 115.038,120.349 114.498,120.698 113.972 C 121.048 113.447,121.333 112.944,121.333 112.855 C 121.333 112.767,121.393 112.669,121.465 112.639 C 121.638 112.566,122.667 111.025,122.667 110.839 C 122.667 110.759,122.726 110.669,122.798 110.639 C 122.979 110.563,124.000 109.021,124.000 108.825 C 124.000 108.738,124.063 108.667,124.139 108.667 C 124.215 108.667,124.571 108.235,124.928 107.708 C 125.286 107.181,125.673 106.690,125.789 106.617 C 125.905 106.543,126.000 106.375,126.000 106.242 C 126.000 106.109,126.069 106.000,126.153 106.000 C 126.237 106.000,126.476 105.719,126.684 105.375 C 128.150 102.953,129.418 103.410,129.823 106.506 C 130.268 109.899,130.726 112.857,131.018 114.221 C 131.192 115.030,131.333 115.855,131.333 116.054 C 131.333 116.254,131.476 116.942,131.652 117.583 C 132.421 120.382,132.527 120.781,132.657 121.333 C 132.897 122.353,133.723 124.503,134.194 125.333 C 134.272 125.471,134.427 125.771,134.538 126.000 C 134.819 126.578,135.882 128.018,136.311 128.401 C 136.507 128.575,136.667 128.818,136.667 128.941 C 136.667 129.570,139.042 131.837,140.092 132.209 C 142.052 132.904,145.933 131.759,145.994 130.467 C 146.003 130.294,147.048 128.759,147.202 128.694 C 147.274 128.664,147.333 128.574,147.333 128.494 C 147.333 128.359,148.290 126.849,148.491 126.667 C 148.597 126.571,148.852 126.168,149.333 125.333 C 149.815 124.499,150.070 124.096,150.175 124.000 C 150.322 123.867,151.333 122.325,151.333 122.235 C 151.333 122.190,151.413 122.062,151.510 121.951 C 151.607 121.841,151.851 121.494,152.052 121.180 C 152.665 120.223,152.740 120.108,153.253 119.348 C 154.139 118.038,154.319 117.758,154.602 117.250 C 154.755 116.975,154.928 116.712,154.987 116.667 C 155.046 116.621,155.352 116.171,155.667 115.667 C 155.981 115.162,156.281 114.712,156.333 114.667 C 156.385 114.621,156.685 114.171,157.000 113.667 C 157.315 113.162,157.616 112.712,157.670 112.667 C 157.755 112.594,158.201 111.896,158.750 110.975 C 158.842 110.822,159.160 110.348,159.458 109.923 C 159.756 109.498,160.000 109.090,160.000 109.017 C 160.000 108.945,160.150 108.749,160.333 108.583 C 160.517 108.417,160.667 108.162,160.667 108.016 C 160.669 107.327,161.309 106.667,161.974 106.667 L 162.619 106.667 162.713 108.792 C 162.942 113.978,164.019 119.131,165.596 122.583 C 165.722 122.858,165.903 123.271,165.999 123.500 C 166.095 123.729,166.396 124.254,166.667 124.667 C 166.939 125.079,167.213 125.523,167.276 125.654 C 167.339 125.784,167.509 126.016,167.654 126.169 C 167.798 126.322,168.203 126.799,168.553 127.228 C 172.487 132.049,179.377 134.009,184.417 131.742 C 184.692 131.618,185.179 131.402,185.500 131.262 C 185.821 131.122,186.231 130.911,186.412 130.795 C 187.094 130.355,188.919 129.135,188.970 129.084 C 189.000 129.055,188.320 128.331,187.459 127.474 C 186.599 126.618,185.750 125.700,185.572 125.434 C 185.395 125.169,185.119 124.834,184.958 124.689 C 184.798 124.544,184.662 124.349,184.656 124.255 C 184.650 124.160,184.388 123.746,184.074 123.333 C 183.760 122.921,183.382 122.302,183.234 121.958 C 183.085 121.615,182.897 121.333,182.815 121.333 C 182.734 121.333,182.665 121.202,182.663 121.042 C 182.661 120.881,182.513 120.563,182.333 120.333 C 182.154 120.104,182.006 119.820,182.004 119.702 C 182.002 119.585,181.869 119.288,181.708 119.043 C 181.339 118.479,181.016 117.625,180.811 116.667 C 179.385 110.022,179.085 107.012,179.084 99.333 C 179.083 94.796,179.332 88.993,179.610 87.042 L 179.711 86.333 178.564 86.357 C 177.933 86.370,176.592 86.475,175.583 86.590 M232.649 86.583 C 231.493 86.700,230.131 86.917,229.623 87.065 C 229.115 87.212,228.522 87.333,228.305 87.333 C 228.089 87.333,227.502 87.483,227.000 87.667 C 226.498 87.850,225.976 88.000,225.839 88.000 C 225.602 88.000,224.760 88.300,222.917 89.042 C 221.826 89.481,219.262 90.741,218.417 91.254 C 218.050 91.476,217.525 91.783,217.250 91.936 C 216.975 92.088,216.713 92.260,216.667 92.317 C 216.621 92.374,216.152 92.714,215.625 93.072 C 215.098 93.429,214.667 93.785,214.667 93.861 C 214.667 93.937,214.571 94.000,214.454 94.000 C 214.337 94.000,214.121 94.131,213.974 94.292 C 213.827 94.452,213.455 94.771,213.146 95.000 C 211.991 95.859,207.333 100.674,207.333 101.009 C 207.333 101.087,207.228 101.210,207.099 101.283 C 206.970 101.357,206.333 102.092,205.685 102.917 C 205.036 103.742,204.392 104.535,204.253 104.681 C 204.114 104.826,204.000 105.032,204.000 105.139 C 204.000 105.246,203.943 105.333,203.873 105.333 C 203.803 105.333,203.560 105.633,203.333 106.000 C 203.107 106.367,202.873 106.667,202.813 106.667 C 202.754 106.667,202.659 106.798,202.603 106.958 C 202.517 107.205,202.036 107.943,201.545 108.583 C 201.356 108.829,200.511 110.418,199.860 111.750 C 199.547 112.392,199.196 113.104,199.079 113.333 C 198.385 114.702,197.497 118.465,197.503 120.014 C 197.511 122.325,198.915 126.000,199.790 126.000 C 199.905 126.000,200.000 126.066,200.000 126.146 C 200.000 126.227,200.431 126.621,200.958 127.021 C 201.485 127.422,201.942 127.806,201.972 127.875 C 202.003 127.944,202.125 128.000,202.243 128.000 C 202.362 128.000,202.551 128.111,202.664 128.247 C 202.776 128.382,203.067 128.595,203.309 128.719 C 203.552 128.844,204.021 129.101,204.352 129.290 C 205.417 129.900,205.562 129.974,206.882 130.581 C 207.596 130.909,208.421 131.224,208.715 131.279 C 209.009 131.335,209.439 131.476,209.670 131.592 C 209.901 131.707,210.501 131.884,211.003 131.984 C 211.506 132.085,212.292 132.269,212.750 132.395 C 217.416 133.672,228.434 132.613,234.397 130.314 C 234.845 130.141,235.317 130.000,235.447 130.000 C 235.847 130.000,238.520 128.444,238.639 128.142 C 238.669 128.064,238.761 128.000,238.841 128.000 C 238.922 128.000,239.310 127.773,239.702 127.495 C 240.095 127.217,240.604 126.862,240.833 126.707 C 241.063 126.552,241.310 126.329,241.383 126.212 C 241.457 126.096,241.580 126.000,241.658 126.000 C 241.819 126.000,242.493 125.451,243.805 124.250 C 244.804 123.336,245.756 121.979,245.924 121.230 C 245.983 120.966,246.144 120.439,246.282 120.058 C 246.841 118.515,246.082 118.276,243.929 119.318 C 242.705 119.910,241.093 120.661,238.954 121.637 C 238.516 121.837,238.081 122.000,237.987 122.000 C 237.894 122.000,237.507 122.150,237.127 122.333 C 236.748 122.517,236.359 122.667,236.264 122.667 C 236.168 122.667,235.713 122.808,235.253 122.981 C 231.338 124.452,225.769 125.519,224.250 125.089 C 223.700 124.934,223.063 124.769,222.833 124.722 C 222.192 124.593,220.000 123.624,220.000 123.470 C 220.000 123.395,219.904 123.333,219.787 123.333 C 219.670 123.333,219.453 123.192,219.306 123.020 C 219.159 122.848,218.973 122.679,218.894 122.645 C 218.076 122.294,217.780 120.111,218.374 118.815 L 218.748 118.000 219.916 117.998 C 220.558 117.996,223.922 118.082,227.391 118.188 C 235.023 118.421,236.237 118.269,238.947 116.736 C 239.389 116.486,239.914 116.194,240.114 116.087 C 240.934 115.649,243.333 112.848,243.333 112.329 C 243.333 112.244,243.483 111.929,243.666 111.629 C 244.570 110.147,243.889 109.232,242.021 109.420 C 238.534 109.771,220.642 109.407,220.180 108.976 C 219.997 108.806,219.772 108.667,219.681 108.667 C 219.589 108.667,219.323 108.341,219.090 107.944 C 218.116 106.282,218.690 104.274,221.002 101.250 C 221.726 100.303,222.208 99.622,222.583 99.018 C 222.675 98.871,222.790 98.712,222.839 98.667 C 222.888 98.621,223.222 98.208,223.582 97.750 C 224.384 96.728,225.970 95.143,227.085 94.250 C 227.542 93.883,227.942 93.527,227.972 93.458 C 228.003 93.390,228.109 93.333,228.209 93.333 C 228.309 93.333,228.509 93.230,228.654 93.104 C 230.325 91.644,234.726 90.185,235.438 90.854 C 236.635 91.978,237.250 95.101,236.553 96.516 C 236.444 96.737,236.087 97.479,235.759 98.167 C 235.090 99.570,234.680 100.312,234.372 100.672 C 234.258 100.807,233.790 101.404,233.332 102.000 C 232.153 103.534,231.118 104.655,230.875 104.661 C 230.737 104.665,230.667 104.947,230.667 105.500 C 230.667 106.254,230.702 106.333,231.042 106.330 C 232.095 106.321,235.676 105.820,236.313 105.593 C 236.714 105.450,237.242 105.333,237.488 105.333 C 237.733 105.333,238.005 105.266,238.092 105.183 C 238.179 105.100,238.625 104.908,239.083 104.756 C 239.786 104.522,241.653 103.563,242.916 102.788 C 244.235 101.977,246.511 99.814,247.676 98.263 L 248.417 97.276 248.476 94.633 C 248.553 91.183,248.514 91.007,247.422 89.915 C 244.345 86.838,239.939 85.845,232.649 86.583 M339.561 101.967 C 339.802 102.316,340.000 102.697,340.000 102.815 C 340.000 102.933,340.143 103.566,340.319 104.223 C 340.494 104.879,340.788 106.017,340.972 106.750 C 341.156 107.483,341.458 108.683,341.643 109.417 C 341.828 110.150,342.111 111.291,342.270 111.953 L 342.561 113.155 342.105 113.578 L 341.649 114.000 336.998 114.000 C 330.854 114.000,330.703 113.878,332.757 110.583 C 332.985 110.217,333.245 109.767,333.333 109.583 C 333.422 109.400,333.681 108.950,333.910 108.583 C 334.138 108.217,334.479 107.654,334.667 107.333 C 334.854 107.013,335.195 106.450,335.424 106.083 C 335.652 105.717,335.914 105.267,336.006 105.083 C 336.098 104.900,336.395 104.412,336.667 104.000 C 336.938 103.587,337.232 103.088,337.320 102.891 C 337.536 102.406,338.624 101.333,338.900 101.333 C 339.022 101.333,339.319 101.619,339.561 101.967 " stroke="none" fill="#fcfcfc" fill-rule="evenodd"></path><path id="path1" d="M82.750 24.160 C 79.176 24.318,75.401 24.628,73.250 24.939 C 72.333 25.072,71.067 25.252,70.437 25.338 C 69.806 25.425,69.018 25.575,68.687 25.672 C 68.355 25.768,67.671 25.918,67.167 26.005 C 66.662 26.091,65.837 26.280,65.333 26.425 C 63.723 26.886,61.599 27.555,61.083 27.765 C 59.416 28.441,57.190 29.436,56.833 29.665 C 56.604 29.812,56.229 30.024,56.000 30.135 C 55.771 30.246,55.386 30.467,55.144 30.627 C 54.903 30.786,54.397 31.099,54.019 31.322 C 53.642 31.545,53.333 31.789,53.333 31.864 C 53.333 31.939,53.223 32.000,53.089 32.000 C 52.955 32.000,52.765 32.150,52.667 32.333 C 52.569 32.517,52.385 32.667,52.258 32.667 C 52.131 32.667,52.003 32.732,51.972 32.812 C 51.942 32.892,51.429 33.326,50.833 33.778 C 48.588 35.478,47.729 36.159,47.046 36.778 C 46.659 37.129,46.030 37.679,45.649 38.000 C 44.729 38.775,41.483 42.034,40.333 43.337 C 39.829 43.909,39.340 44.461,39.247 44.563 C 38.842 45.009,36.705 47.816,36.250 48.500 C 35.975 48.913,35.705 49.288,35.649 49.333 C 35.593 49.379,35.421 49.642,35.268 49.917 C 35.115 50.192,34.861 50.616,34.703 50.859 C 32.924 53.605,31.304 57.092,29.838 61.333 C 29.063 63.575,28.225 67.282,27.803 70.333 C 26.914 76.749,28.451 85.791,31.668 93.083 C 31.830 93.450,32.167 94.237,32.418 94.833 C 32.904 95.988,34.777 99.805,34.994 100.083 C 35.066 100.175,35.386 100.737,35.706 101.333 C 36.366 102.563,36.907 103.521,37.353 104.250 C 37.521 104.525,37.811 105.013,37.997 105.333 C 38.495 106.188,38.738 106.573,38.842 106.667 C 38.974 106.786,40.000 108.337,40.000 108.417 C 40.000 108.453,40.244 108.832,40.542 109.259 C 40.840 109.685,41.158 110.154,41.250 110.302 C 41.342 110.449,41.511 110.672,41.626 110.798 C 41.741 110.923,41.922 111.189,42.027 111.388 C 42.562 112.400,48.949 120.667,49.196 120.667 C 49.271 120.667,49.333 120.777,49.333 120.911 C 49.333 121.045,49.483 121.235,49.667 121.333 C 49.850 121.431,50.000 121.622,50.000 121.756 C 50.000 121.890,50.064 122.000,50.142 122.000 C 50.220 122.000,50.651 122.469,51.100 123.042 C 51.549 123.615,52.104 124.288,52.333 124.539 C 52.562 124.790,53.012 125.310,53.333 125.696 C 54.524 127.126,63.506 136.000,63.763 136.000 C 63.818 136.000,63.988 136.137,64.140 136.305 C 64.885 137.127,70.879 142.000,71.145 142.000 C 71.233 142.000,71.331 142.068,71.361 142.151 C 71.410 142.283,75.001 145.004,76.002 145.667 C 76.210 145.804,76.576 146.067,76.815 146.250 C 77.054 146.433,77.498 146.758,77.802 146.971 C 78.987 147.803,79.885 148.428,80.241 148.667 C 81.823 149.729,82.595 150.262,82.667 150.342 C 82.739 150.422,83.471 150.887,84.358 151.417 C 84.512 151.508,84.985 151.827,85.410 152.125 C 85.836 152.423,86.243 152.667,86.316 152.667 C 86.389 152.667,86.584 152.817,86.750 153.000 C 86.916 153.183,87.116 153.333,87.194 153.333 C 87.273 153.333,88.016 153.783,88.847 154.333 C 89.677 154.883,90.392 155.333,90.435 155.333 C 90.478 155.333,90.735 155.483,91.007 155.667 C 92.114 156.415,92.450 156.624,93.167 157.011 C 93.579 157.234,93.954 157.462,94.000 157.518 C 94.046 157.574,94.339 157.751,94.651 157.911 C 94.963 158.071,95.301 158.270,95.401 158.353 C 95.900 158.767,96.876 159.333,97.091 159.333 C 97.224 159.333,97.333 159.393,97.333 159.467 C 97.333 159.540,97.652 159.766,98.042 159.969 C 98.431 160.171,98.975 160.475,99.250 160.645 C 99.525 160.814,100.031 161.113,100.375 161.310 C 100.719 161.506,101.281 161.829,101.625 162.027 C 101.969 162.226,102.475 162.501,102.750 162.639 C 103.025 162.777,103.287 162.940,103.333 163.000 C 103.379 163.060,103.642 163.223,103.917 163.361 C 104.192 163.499,104.717 163.786,105.083 163.997 C 105.450 164.209,106.162 164.606,106.667 164.880 C 107.171 165.154,107.808 165.510,108.083 165.672 C 108.358 165.834,108.996 166.189,109.500 166.461 C 111.124 167.336,111.747 167.695,111.908 167.849 C 112.104 168.035,112.667 168.049,112.667 167.868 C 112.667 167.795,112.310 167.463,111.873 167.130 C 111.437 166.797,110.893 166.362,110.665 166.162 C 110.437 165.963,109.444 165.157,108.458 164.371 C 107.473 163.586,106.667 162.881,106.667 162.805 C 106.667 162.729,106.557 162.667,106.423 162.667 C 106.288 162.667,106.098 162.517,106.000 162.333 C 105.902 162.150,105.712 162.000,105.577 162.000 C 105.443 162.000,105.333 161.936,105.333 161.858 C 105.333 161.780,104.902 161.376,104.375 160.960 C 103.848 160.545,103.226 160.027,102.992 159.811 C 102.759 159.594,102.159 159.079,101.659 158.667 C 101.159 158.255,100.675 157.838,100.583 157.741 C 100.492 157.643,99.929 157.158,99.333 156.663 C 98.737 156.168,98.131 155.648,97.986 155.507 C 97.841 155.366,97.405 154.987,97.019 154.667 C 96.632 154.346,96.111 153.896,95.861 153.667 C 95.611 153.438,94.789 152.726,94.036 152.085 C 93.283 151.444,92.667 150.863,92.667 150.793 C 92.667 150.724,92.582 150.667,92.477 150.667 C 92.373 150.667,92.123 150.498,91.921 150.292 C 91.720 150.085,91.299 149.688,90.986 149.408 C 88.929 147.570,86.622 145.467,85.878 144.753 C 85.398 144.293,84.393 143.354,83.645 142.667 C 81.865 141.031,72.667 131.877,72.667 131.742 C 72.667 131.684,72.348 131.321,71.958 130.934 C 71.086 130.069,69.264 128.036,68.315 126.870 C 67.926 126.392,67.546 126.000,67.471 126.000 C 67.395 126.000,67.333 125.890,67.333 125.756 C 67.333 125.622,67.183 125.431,67.000 125.333 C 66.817 125.235,66.667 125.045,66.667 124.911 C 66.667 124.777,66.605 124.667,66.529 124.667 C 66.453 124.667,66.065 124.217,65.667 123.667 C 65.268 123.117,64.880 122.667,64.804 122.667 C 64.729 122.667,64.667 122.571,64.667 122.454 C 64.667 122.337,64.535 122.118,64.375 121.969 C 64.215 121.819,63.821 121.334,63.501 120.890 C 63.181 120.446,62.881 120.046,62.834 120.000 C 62.788 119.954,62.675 119.797,62.583 119.650 C 62.366 119.302,61.120 117.465,60.956 117.250 C 60.713 116.932,60.000 115.818,60.000 115.757 C 60.000 115.722,59.581 114.957,59.070 114.056 C 58.558 113.154,58.034 112.192,57.904 111.917 C 57.774 111.642,57.382 110.892,57.033 110.250 C 56.284 108.872,56.058 108.449,55.833 108.000 C 55.742 107.817,55.592 107.517,55.500 107.333 C 55.408 107.150,55.258 106.850,55.167 106.667 C 55.075 106.483,54.925 106.183,54.833 106.000 C 54.742 105.817,54.592 105.517,54.500 105.333 C 54.214 104.760,54.064 104.443,53.678 103.583 C 53.472 103.125,53.168 102.450,53.002 102.083 C 52.837 101.717,52.534 101.004,52.329 100.500 C 52.124 99.996,51.822 99.283,51.660 98.917 C 51.497 98.550,51.198 97.800,50.997 97.250 C 50.795 96.700,50.503 95.950,50.347 95.583 C 50.191 95.217,49.888 94.354,49.673 93.667 C 49.458 92.979,49.153 92.042,48.995 91.583 C 48.615 90.480,47.572 86.750,47.435 86.000 C 47.393 85.771,47.204 84.796,47.016 83.833 C 45.990 78.604,46.020 72.365,47.092 67.885 C 47.547 65.985,48.023 64.277,48.245 63.749 C 48.361 63.474,48.512 62.992,48.581 62.677 C 48.650 62.363,48.848 61.855,49.020 61.548 C 49.192 61.241,49.333 60.898,49.333 60.785 C 49.333 60.515,51.448 56.334,51.758 55.991 C 51.891 55.844,52.000 55.655,52.001 55.570 C 52.001 55.486,52.301 55.021,52.667 54.538 C 53.034 54.055,53.333 53.593,53.333 53.511 C 53.333 53.428,53.390 53.336,53.458 53.306 C 53.527 53.275,53.841 52.913,54.156 52.500 C 54.751 51.720,55.339 51.064,56.750 49.602 C 57.719 48.598,60.897 46.000,61.157 46.000 C 61.254 46.000,61.333 45.939,61.333 45.864 C 61.333 45.789,61.642 45.545,62.019 45.322 C 62.397 45.099,62.903 44.786,63.144 44.627 C 63.386 44.467,63.771 44.243,64.000 44.128 C 64.229 44.014,64.668 43.752,64.976 43.547 C 65.284 43.342,65.959 42.978,66.476 42.738 C 66.993 42.498,68.204 41.925,69.167 41.463 C 73.942 39.174,78.572 37.605,81.583 37.255 C 82.042 37.202,82.942 37.089,83.583 37.003 C 87.095 36.536,91.671 37.104,95.417 38.472 C 96.058 38.707,96.731 38.996,96.912 39.116 C 97.093 39.236,97.323 39.333,97.424 39.333 C 97.602 39.333,98.900 40.028,100.143 40.788 C 100.477 40.992,100.881 41.207,101.042 41.265 C 101.202 41.324,101.333 41.434,101.333 41.509 C 101.333 41.584,101.633 41.814,102.000 42.020 C 102.367 42.226,102.667 42.456,102.667 42.531 C 102.667 42.605,102.777 42.667,102.911 42.667 C 103.045 42.667,103.235 42.817,103.333 43.000 C 103.431 43.183,103.576 43.333,103.655 43.333 C 104.221 43.333,108.855 48.082,109.611 49.437 C 112.133 53.956,113.269 57.180,114.306 62.750 C 115.100 67.021,115.228 68.664,115.324 75.833 L 115.417 82.750 115.727 81.750 C 116.024 80.791,116.259 79.974,116.971 77.417 C 117.650 74.979,118.053 73.550,118.333 72.583 C 118.493 72.033,118.788 70.983,118.988 70.250 C 119.189 69.517,119.491 68.429,119.661 67.833 C 119.830 67.237,120.135 66.150,120.338 65.417 C 120.540 64.683,120.841 63.633,121.006 63.083 C 121.287 62.148,121.582 61.102,122.368 58.250 C 122.545 57.608,122.830 56.596,123.002 56.000 C 123.173 55.404,123.409 54.561,123.526 54.127 C 123.702 53.472,123.767 53.386,123.906 53.627 C 124.033 53.848,124.120 53.539,124.272 52.333 C 124.381 51.462,124.445 50.724,124.413 50.692 C 124.243 50.519,123.999 50.922,123.995 51.385 C 123.988 52.106,123.780 51.695,123.506 50.417 C 123.199 48.991,122.704 47.232,122.309 46.167 C 121.889 45.037,120.648 42.144,120.485 41.917 C 120.419 41.825,120.123 41.300,119.826 40.750 C 119.530 40.200,119.148 39.595,118.977 39.406 C 118.806 39.217,118.667 39.005,118.667 38.936 C 118.667 38.800,117.919 37.751,117.506 37.309 C 117.365 37.157,116.987 36.714,116.667 36.324 C 116.346 35.933,115.567 35.119,114.936 34.515 C 114.305 33.911,113.621 33.248,113.417 33.042 C 113.212 32.835,112.960 32.667,112.856 32.667 C 112.752 32.667,112.667 32.592,112.667 32.502 C 112.667 32.411,112.235 32.055,111.708 31.711 C 111.181 31.366,110.712 31.046,110.667 30.999 C 110.549 30.879,109.301 30.085,109.000 29.939 C 108.862 29.872,108.450 29.635,108.083 29.412 C 107.717 29.189,107.229 28.920,107.000 28.814 C 106.771 28.708,106.053 28.373,105.404 28.070 C 104.127 27.473,103.543 27.250,101.250 26.485 C 98.349 25.518,96.452 25.047,93.000 24.435 C 91.236 24.122,86.488 23.995,82.750 24.160 M153.833 37.093 C 151.705 37.362,149.149 37.874,147.500 38.362 C 145.133 39.062,144.059 39.427,143.537 39.707 C 143.236 39.868,142.915 40.000,142.823 40.000 C 142.375 40.000,138.773 41.917,139.125 41.968 C 139.331 41.999,139.500 42.059,139.500 42.103 C 139.500 42.195,137.918 45.215,136.979 46.917 C 136.625 47.558,136.184 48.383,136.000 48.750 C 135.815 49.117,135.472 49.754,135.236 50.167 C 134.186 52.007,132.825 54.714,132.908 54.797 C 132.958 54.847,133.449 54.538,134.000 54.111 C 134.550 53.683,135.075 53.333,135.167 53.333 C 135.258 53.333,135.333 53.264,135.333 53.180 C 135.333 53.096,135.615 52.856,135.958 52.646 C 136.302 52.436,136.608 52.205,136.639 52.132 C 136.669 52.059,136.759 52.000,136.839 52.000 C 136.975 52.000,138.488 51.040,138.667 50.841 C 138.712 50.789,139.162 50.531,139.667 50.266 C 140.171 50.001,140.696 49.702,140.833 49.601 C 141.285 49.268,141.844 48.975,143.846 48.017 C 144.632 47.641,145.327 47.333,145.390 47.333 C 145.452 47.333,145.822 47.187,146.210 47.007 C 147.170 46.564,150.932 45.333,151.327 45.333 C 151.502 45.333,152.269 45.181,153.031 44.995 C 155.727 44.337,162.632 44.385,165.378 45.081 C 166.917 45.471,168.643 45.995,169.564 46.352 C 170.012 46.525,170.453 46.667,170.546 46.667 C 170.638 46.667,171.022 46.810,171.398 46.985 C 171.775 47.160,172.352 47.420,172.680 47.563 C 174.041 48.155,179.333 53.022,179.333 53.681 C 179.333 53.756,179.428 53.877,179.545 53.950 C 179.661 54.023,179.867 54.242,180.003 54.436 C 180.423 55.037,181.905 57.242,182.122 57.588 C 182.454 58.120,184.000 61.331,184.000 61.490 C 184.000 61.570,184.139 61.924,184.308 62.276 C 187.200 68.293,187.902 83.495,185.651 91.359 C 185.476 91.969,185.334 92.607,185.335 92.776 C 185.336 92.945,185.194 93.533,185.020 94.083 C 184.845 94.633,184.536 95.646,184.332 96.333 C 183.656 98.612,182.801 100.893,181.689 103.379 C 181.252 104.359,181.224 105.799,181.592 108.511 C 181.734 109.559,181.913 111.227,181.990 112.218 C 182.164 114.460,182.385 114.577,183.417 112.975 C 183.508 112.833,183.807 112.387,184.080 111.983 C 184.592 111.227,184.665 111.115,185.282 110.153 C 185.483 109.840,185.726 109.493,185.823 109.382 C 185.921 109.271,186.000 109.065,186.000 108.924 C 186.000 108.782,186.060 108.667,186.133 108.667 C 186.207 108.667,186.433 108.348,186.635 107.958 C 186.838 107.569,187.142 107.025,187.311 106.750 C 187.737 106.059,188.753 104.280,189.549 102.833 C 191.619 99.071,193.075 95.850,194.295 92.333 C 195.107 89.992,195.280 89.362,196.242 85.223 C 196.395 84.567,196.586 83.442,196.667 82.723 C 196.749 82.005,196.939 80.329,197.091 79.000 C 197.399 76.306,197.343 70.070,197.002 69.000 C 196.900 68.679,196.753 68.079,196.677 67.667 C 196.553 66.997,196.012 64.942,195.405 62.833 C 195.164 61.997,194.583 60.348,194.260 59.583 C 194.144 59.308,193.877 58.671,193.668 58.167 C 193.194 57.028,191.766 54.116,191.298 53.333 C 191.106 53.012,190.864 52.600,190.762 52.417 C 190.659 52.233,190.352 51.753,190.079 51.350 C 189.806 50.947,189.508 50.497,189.417 50.350 C 189.325 50.203,189.213 50.046,189.167 50.000 C 189.121 49.954,188.828 49.579,188.516 49.167 C 186.839 46.952,182.213 42.667,181.498 42.667 C 181.407 42.667,181.333 42.600,181.333 42.519 C 181.333 42.438,181.052 42.239,180.708 42.078 C 180.365 41.916,180.046 41.731,180.000 41.667 C 179.848 41.454,176.432 39.876,175.500 39.588 C 174.996 39.433,174.246 39.190,173.833 39.049 C 173.421 38.907,172.783 38.738,172.417 38.673 C 172.050 38.607,171.300 38.434,170.750 38.289 C 169.572 37.978,166.665 37.438,164.667 37.160 C 162.430 36.848,156.081 36.809,153.833 37.093 M164.945 127.892 C 164.379 128.475,163.504 129.423,163.000 129.999 C 162.496 130.575,161.968 131.167,161.827 131.315 C 161.685 131.463,161.165 132.071,160.670 132.667 C 160.175 133.262,159.690 133.825,159.593 133.917 C 159.495 134.008,159.078 134.496,158.667 135.000 C 158.255 135.504,157.835 135.992,157.734 136.083 C 157.632 136.175,157.153 136.737,156.670 137.333 C 156.186 137.929,155.669 138.544,155.520 138.700 C 155.372 138.856,155.161 139.091,155.053 139.223 C 154.229 140.222,152.222 142.618,152.085 142.766 C 151.993 142.866,151.654 143.267,151.333 143.656 C 151.012 144.045,150.649 144.471,150.526 144.602 C 150.402 144.734,149.765 145.498,149.109 146.301 C 147.673 148.058,147.496 148.268,147.140 148.633 C 146.988 148.789,146.325 149.592,145.667 150.417 C 145.008 151.242,144.364 151.977,144.235 152.050 C 144.106 152.123,144.000 152.292,144.000 152.425 C 144.000 152.558,143.937 152.667,143.860 152.667 C 143.783 152.667,143.202 153.323,142.569 154.125 C 141.935 154.927,141.248 155.742,141.042 155.936 C 140.835 156.130,140.667 156.373,140.667 156.477 C 140.667 156.582,140.603 156.667,140.525 156.667 C 140.446 156.667,140.029 157.117,139.597 157.667 C 138.671 158.846,138.900 158.985,140.147 158.000 C 140.611 157.633,141.024 157.333,141.064 157.333 C 141.105 157.333,141.313 157.186,141.528 157.006 C 141.742 156.827,142.985 155.840,144.292 154.813 C 145.598 153.787,146.667 152.884,146.667 152.807 C 146.667 152.730,146.743 152.667,146.835 152.667 C 146.928 152.667,147.285 152.410,147.627 152.096 C 147.970 151.781,148.925 150.944,149.750 150.234 C 150.575 149.524,151.489 148.712,151.780 148.430 C 152.072 148.148,153.075 147.204,154.009 146.333 C 154.944 145.462,156.655 143.786,157.813 142.607 C 158.970 141.429,160.385 139.990,160.958 139.410 C 161.531 138.830,162.000 138.313,162.000 138.261 C 162.000 138.209,162.252 137.922,162.560 137.625 C 163.216 136.989,163.917 136.201,166.954 132.680 C 167.158 132.443,167.464 132.100,167.634 131.917 C 167.804 131.733,168.226 131.229,168.571 130.797 L 169.199 130.010 168.065 128.713 C 167.441 128.000,166.817 127.285,166.678 127.125 C 166.277 126.661,166.037 126.767,164.945 127.892 " stroke="none" fill="#c40414" fill-rule="evenodd"></path></g></svg>